<svg xmlns="http://www.w3.org/2000/svg" xmlns:xlink="http://www.w3.org/1999/xlink" width="1120" height="203" viewBox="0 0 1120 203">
  <defs>
    <rect id="3sigma-a" width="200.165" height="203" x=".724" y="0"/>
  </defs>
  <g fill="none" fill-rule="evenodd">
    <path fill="#000" fill-rule="nonzero" d="M347.328185 54.77L347.328185 66.65 309.213185 66.65 309.213185 164 296.838185 164 296.838185 66.65 258.723185 66.65 258.723185 54.77 347.328185 54.77zM354.163185 48.5L366.538185 48.5 366.538185 94.37C372.478185 86.45 380.563185 80.18 393.928185 80.18 410.923185 80.18 426.928185 92.555 426.928185 115.985L426.928185 164 414.553185 164 414.553185 116.315C414.553185 101.3 404.983185 91.4 391.453185 91.4 377.758185 91.4 366.538185 101.63 366.538185 116.48L366.538185 164 354.163185 164 354.163185 48.5zM484.088185 80.18L484.913185 80.18 484.913185 92.555 483.428185 92.555C464.948185 92.555 453.728185 109.55 453.728185 127.7L453.728185 164 441.353185 164 441.353185 81.5 453.728185 81.5 453.728185 101.795C455.378185 96.185 463.628185 80.18 484.088185 80.18zM526.728185 154.1C538.278185 154.1 546.198185 148.49 550.653185 140.24L564.183185 140.24C558.408185 155.09 546.198185 165.32 526.563185 165.32 501.318185 165.32 484.818185 146.345 484.818185 122.75 484.818185 99.155 500.493185 80.18 525.738185 80.18 550.983185 80.18 566.658185 99.155 566.658185 122.75L566.658185 127.7 497.523185 127.7C499.338185 142.385 510.063185 154.1 526.728185 154.1zM525.738185 91.4C509.898185 91.4 499.998185 102.125 497.688185 116.15L553.788185 116.15C551.478185 102.125 541.578185 91.4 525.738185 91.4zM612.433185 154.1C623.983185 154.1 631.903185 148.49 636.358185 140.24L649.888185 140.24C644.113185 155.09 631.903185 165.32 612.268185 165.32 587.023185 165.32 570.523185 146.345 570.523185 122.75 570.523185 99.155 586.198185 80.18 611.443185 80.18 636.688185 80.18 652.363185 99.155 652.363185 122.75L652.363185 127.7 583.228185 127.7C585.043185 142.385 595.768185 154.1 612.433185 154.1zM611.443185 91.4C595.603185 91.4 585.703185 102.125 583.393185 116.15L639.493185 116.15C637.183185 102.125 627.283185 91.4 611.443185 91.4zM700.188185 83.48C700.188185 108.89 775.263185 95.69 775.263185 133.805 775.263185 154.1 758.928185 165.32 732.033185 165.32 699.693185 165.32 686.493185 150.965 684.843185 131.33L697.713185 131.33C698.538185 147.17 713.883185 153.605 732.858185 153.605 751.338185 153.605 762.888185 147.17 762.888185 134.3 762.888185 107.57 688.143185 121.1 688.143185 83.645 688.143185 65.825 701.838185 53.45 729.228185 53.45 758.268185 53.45 771.468185 68.3 772.458185 84.635L759.753185 84.635C758.433185 73.745 749.193185 65 729.228185 65 704.478185 65 700.188185 76.22 700.188185 83.48zM785.563185 164L785.563185 81.5 797.938185 81.5 797.938185 164 785.563185 164zM785.068185 51.47L798.433185 51.47 798.433185 67.64 785.068185 67.64 785.068185 51.47zM877.538185 81.5L889.913185 81.5 889.913185 161.525C889.913185 185.12 875.723185 197.99 850.973185 197.99 830.183185 197.99 817.148185 188.255 812.528185 173.9L826.223185 173.9C829.523185 181.985 837.773185 186.77 850.313185 186.77 869.288185 186.77 877.538185 177.695 877.538185 160.7L877.538185 149.315C871.433185 158.225 861.698185 164 848.003185 164 823.913185 164 808.073185 145.685 808.073185 122.09 808.073185 98.495 823.913185 80.18 848.003185 80.18 861.698185 80.18 871.433185 85.79 877.538185 94.7L877.538185 81.5zM849.653185 152.78C867.638185 152.78 878.198185 139.085 878.198185 122.09 878.198185 105.095 867.638185 91.4 849.653185 91.4 831.338185 91.4 820.448185 105.095 820.448185 122.09 820.448185 139.085 831.338185 152.78 849.653185 152.78zM972.648185 114.665L972.648185 164 960.273185 164 960.273185 114.5C960.273185 100.64 951.363185 91.4 939.813185 91.4 927.603185 91.4 917.538185 99.98 917.538185 114.665L917.538185 164 905.163185 164 905.163185 81.5 917.538185 81.5 917.538185 94.04C921.333185 87.44 929.253185 80.18 942.618185 80.18 953.508185 80.18 963.573185 86.285 968.853185 96.845 972.153185 91.235 980.898185 80.18 997.233185 80.18 1013.07319 80.18 1027.75819 93.38 1027.75819 114.17L1027.75819 164 1015.38319 164 1015.38319 114.5C1015.38319 100.64 1006.47319 91.4 994.923185 91.4 982.713185 91.4 972.648185 99.98 972.648185 114.665zM1076.99819 80.18C1090.69319 80.18 1100.42819 85.955 1106.53319 94.865L1106.53319 81.5 1118.90819 81.5 1118.90819 164 1106.53319 164 1106.53319 150.8C1100.42819 159.71 1090.69319 165.32 1076.99819 165.32 1052.90819 165.32 1037.06819 146.345 1037.06819 122.75 1037.06819 99.155 1052.90819 80.18 1076.99819 80.18zM1078.64819 154.1C1096.96319 154.1 1107.19319 139.745 1107.19319 122.75 1107.19319 105.755 1096.96319 91.4 1078.64819 91.4 1060.33319 91.4 1049.44319 105.755 1049.44319 122.75 1049.44319 139.745 1060.33319 154.1 1078.64819 154.1zM0 0L200.165459 0 200.165459 203 0 203 0 0zM12 12L12 191 188.165459 191 188.165459 12 12 12z" transform="translate(.587)"/>
    <mask id="3sigma-b" fill="#fff">
      <use xlink:href="#3sigma-a"/>
    </mask>
    <path stroke="#000" stroke-width="12" d="M-245.846123,196.823171 C-148.131818,196.823171 -97.8654073,167.661781 -77.218433,129.956236 C-45.2064005,71.4957983 -37.9629304,5 -5.64590996,5 C26.6711105,5 35.0289606,68.2521008 64.956652,128.759926 C83.9176034,167.095189 139.308971,198 237.846123,198 C479.693097,198 -487.693097,196.823171 -245.846123,196.823171 Z" mask="url(#3sigma-b)"/>
  </g>
</svg>
